<svg width="470" height="330" viewBox="0 0 470 330" fill="none" xmlns="http://www.w3.org/2000/svg">
<rect width="470" height="330" fill="white"/>
<path d="M11.4023 17.5469H4.25391L2.64844 22H0.328125L6.84375 4.9375H8.8125L15.3398 22H13.0312L11.4023 17.5469ZM4.93359 15.6953H10.7344L7.82812 7.71484L4.93359 15.6953ZM29.4375 4.9375V16.5391C29.4297 18.1484 28.9219 19.4648 27.9141 20.4883C26.9141 21.5117 25.5547 22.0859 23.8359 22.2109L23.2383 22.2344C21.3711 22.2344 19.8828 21.7305 18.7734 20.7227C17.6641 19.7148 17.1016 18.3281 17.0859 16.5625V4.9375H19.3125V16.4922C19.3125 17.7266 19.6523 18.6875 20.332 19.375C21.0117 20.0547 21.9805 20.3945 23.2383 20.3945C24.5117 20.3945 25.4844 20.0547 26.1562 19.375C26.8359 18.6953 27.1758 17.7383 27.1758 16.5039V4.9375H29.4375ZM44.7773 6.78906H39.293V22H37.0547V6.78906H31.582V4.9375H44.7773V6.78906ZM60.1055 14.0195C60.1055 15.6914 59.8242 17.1523 59.2617 18.4023C58.6992 19.6445 57.9023 20.5938 56.8711 21.25C55.8398 21.9062 54.6367 22.2344 53.2617 22.2344C51.918 22.2344 50.7266 21.9062 49.6875 21.25C48.6484 20.5859 47.8398 19.6445 47.2617 18.4258C46.6914 17.1992 46.3984 15.7812 46.3828 14.1719V12.9414C46.3828 11.3008 46.668 9.85156 47.2383 8.59375C47.8086 7.33594 48.6133 6.375 49.6523 5.71094C50.6992 5.03906 51.8945 4.70312 53.2383 4.70312C54.6055 4.70312 55.8086 5.03516 56.8477 5.69922C57.8945 6.35547 58.6992 7.3125 59.2617 8.57031C59.8242 9.82031 60.1055 11.2773 60.1055 12.9414V14.0195ZM57.8672 12.918C57.8672 10.8945 57.4609 9.34375 56.6484 8.26562C55.8359 7.17969 54.6992 6.63672 53.2383 6.63672C51.8164 6.63672 50.6953 7.17969 49.875 8.26562C49.0625 9.34375 48.6445 10.8438 48.6211 12.7656V14.0195C48.6211 15.9805 49.0312 17.5234 49.8516 18.6484C50.6797 19.7656 51.8164 20.3242 53.2617 20.3242C54.7148 20.3242 55.8398 19.7969 56.6367 18.7422C57.4336 17.6797 57.8438 16.1602 57.8672 14.1836V12.918Z" transform="translate(35 210)" fill="#0A4DA2"/>
<path d="M8.23828 15.0977H4.23047V22H1.96875V4.9375H7.61719C9.53906 4.9375 11.0156 5.375 12.0469 6.25C13.0859 7.125 13.6055 8.39844 13.6055 10.0703C13.6055 11.1328 13.3164 12.0586 12.7383 12.8477C12.168 13.6367 11.3711 14.2266 10.3477 14.6172L14.3555 21.8594V22H11.9414L8.23828 15.0977ZM4.23047 13.2578H7.6875C8.80469 13.2578 9.69141 12.9688 10.3477 12.3906C11.0117 11.8125 11.3438 11.0391 11.3438 10.0703C11.3438 9.01562 11.0273 8.20703 10.3945 7.64453C9.76953 7.08203 8.86328 6.79688 7.67578 6.78906H4.23047V13.2578ZM22.1836 19.0117L27.0586 4.9375H29.5195L23.1914 22H21.1992L14.8828 4.9375H17.332L22.1836 19.0117Z" transform="translate(372 210)" fill="#0A4DA2"/>
<path d="M4.88672 4.9375L10.4648 18.8594L16.043 4.9375H18.9609V22H16.7109V15.3555L16.9219 8.18359L11.3203 22H9.59766L4.00781 8.21875L4.23047 15.3555V22H1.98047V4.9375H4.88672ZM36.0586 14.0195C36.0586 15.6914 35.7773 17.1523 35.2148 18.4023C34.6523 19.6445 33.8555 20.5938 32.8242 21.25C31.793 21.9062 30.5898 22.2344 29.2148 22.2344C27.8711 22.2344 26.6797 21.9062 25.6406 21.25C24.6016 20.5859 23.793 19.6445 23.2148 18.4258C22.6445 17.1992 22.3516 15.7812 22.3359 14.1719V12.9414C22.3359 11.3008 22.6211 9.85156 23.1914 8.59375C23.7617 7.33594 24.5664 6.375 25.6055 5.71094C26.6523 5.03906 27.8477 4.70312 29.1914 4.70312C30.5586 4.70312 31.7617 5.03516 32.8008 5.69922C33.8477 6.35547 34.6523 7.3125 35.2148 8.57031C35.7773 9.82031 36.0586 11.2773 36.0586 12.9414V14.0195ZM33.8203 12.918C33.8203 10.8945 33.4141 9.34375 32.6016 8.26562C31.7891 7.17969 30.6523 6.63672 29.1914 6.63672C27.7695 6.63672 26.6484 7.17969 25.8281 8.26562C25.0156 9.34375 24.5977 10.8438 24.5742 12.7656V14.0195C24.5742 15.9805 24.9844 17.5234 25.8047 18.6484C26.6328 19.7656 27.7695 20.3242 29.2148 20.3242C30.668 20.3242 31.793 19.7969 32.5898 18.7422C33.3867 17.6797 33.7969 16.1602 33.8203 14.1836V12.918ZM50.8945 6.78906H45.4102V22H43.1719V6.78906H37.6992V4.9375H50.8945V6.78906ZM66.2227 14.0195C66.2227 15.6914 65.9414 17.1523 65.3789 18.4023C64.8164 19.6445 64.0195 20.5938 62.9883 21.25C61.957 21.9062 60.7539 22.2344 59.3789 22.2344C58.0352 22.2344 56.8438 21.9062 55.8047 21.25C54.7656 20.5859 53.957 19.6445 53.3789 18.4258C52.8086 17.1992 52.5156 15.7812 52.5 14.1719V12.9414C52.5 11.3008 52.7852 9.85156 53.3555 8.59375C53.9258 7.33594 54.7305 6.375 55.7695 5.71094C56.8164 5.03906 58.0117 4.70312 59.3555 4.70312C60.7227 4.70312 61.9258 5.03516 62.9648 5.69922C64.0117 6.35547 64.8164 7.3125 65.3789 8.57031C65.9414 9.82031 66.2227 11.2773 66.2227 12.9414V14.0195ZM63.9844 12.918C63.9844 10.8945 63.5781 9.34375 62.7656 8.26562C61.9531 7.17969 60.8164 6.63672 59.3555 6.63672C57.9336 6.63672 56.8125 7.17969 55.9922 8.26562C55.1797 9.34375 54.7617 10.8438 54.7383 12.7656V14.0195C54.7383 15.9805 55.1484 17.5234 55.9688 18.6484C56.7969 19.7656 57.9336 20.3242 59.3789 20.3242C60.832 20.3242 61.957 19.7969 62.7539 18.7422C63.5508 17.6797 63.9609 16.1602 63.9844 14.1836V12.918ZM75.8555 15.0977H71.8477V22H69.5859V4.9375H75.2344C77.1562 4.9375 78.6328 5.375 79.6641 6.25C80.7031 7.125 81.2227 8.39844 81.2227 10.0703C81.2227 11.1328 80.9336 12.0586 80.3555 12.8477C79.7852 13.6367 78.9883 14.2266 77.9648 14.6172L81.9727 21.8594V22H79.5586L75.8555 15.0977ZM71.8477 13.2578H75.3047C76.4219 13.2578 77.3086 12.9688 77.9648 12.3906C78.6289 11.8125 78.9609 11.0391 78.9609 10.0703C78.9609 9.01562 78.6445 8.20703 78.0117 7.64453C77.3867 7.08203 76.4805 6.79688 75.293 6.78906H71.8477V13.2578ZM96.9375 16.5859C96.7266 18.3906 96.0586 19.7852 94.9336 20.7695C93.8164 21.7461 92.3281 22.2344 90.4688 22.2344C88.4531 22.2344 86.8359 21.5117 85.6172 20.0664C84.4062 18.6211 83.8008 16.6875 83.8008 14.2656V12.625C83.8008 11.0391 84.082 9.64453 84.6445 8.44141C85.2148 7.23828 86.0195 6.31641 87.0586 5.67578C88.0977 5.02734 89.3008 4.70312 90.668 4.70312C92.4805 4.70312 93.9336 5.21094 95.0273 6.22656C96.1211 7.23438 96.7578 8.63281 96.9375 10.4219H94.6758C94.4805 9.0625 94.0547 8.07812 93.3984 7.46875C92.75 6.85938 91.8398 6.55469 90.668 6.55469C89.2305 6.55469 88.1016 7.08594 87.2812 8.14844C86.4688 9.21094 86.0625 10.7227 86.0625 12.6836V14.3359C86.0625 16.1875 86.4492 17.6602 87.2227 18.7539C87.9961 19.8477 89.0781 20.3945 90.4688 20.3945C91.7188 20.3945 92.6758 20.1133 93.3398 19.5508C94.0117 18.9805 94.457 17.9922 94.6758 16.5859H96.9375ZM105.223 13.5039L109.676 4.9375H112.23L106.348 15.6367V22H104.098V15.6367L98.2148 4.9375H100.793L105.223 13.5039ZM126.633 16.5859C126.422 18.3906 125.754 19.7852 124.629 20.7695C123.512 21.7461 122.023 22.2344 120.164 22.2344C118.148 22.2344 116.531 21.5117 115.312 20.0664C114.102 18.6211 113.496 16.6875 113.496 14.2656V12.625C113.496 11.0391 113.777 9.64453 114.34 8.44141C114.91 7.23828 115.715 6.31641 116.754 5.67578C117.793 5.02734 118.996 4.70312 120.363 4.70312C122.176 4.70312 123.629 5.21094 124.723 6.22656C125.816 7.23438 126.453 8.63281 126.633 10.4219H124.371C124.176 9.0625 123.75 8.07812 123.094 7.46875C122.445 6.85938 121.535 6.55469 120.363 6.55469C118.926 6.55469 117.797 7.08594 116.977 8.14844C116.164 9.21094 115.758 10.7227 115.758 12.6836V14.3359C115.758 16.1875 116.145 17.6602 116.918 18.7539C117.691 19.8477 118.773 20.3945 120.164 20.3945C121.414 20.3945 122.371 20.1133 123.035 19.5508C123.707 18.9805 124.152 17.9922 124.371 16.5859H126.633ZM131.977 20.1602H140.062V22H129.715V4.9375H131.977V20.1602ZM152.273 14.1133H144.879V20.1602H153.469V22H142.629V4.9375H153.352V6.78906H144.879V12.2734H152.273V14.1133ZM156.363 23.4648H154.5L161.625 4.9375H163.477L156.363 23.4648ZM175.582 17.5469H168.434L166.828 22H164.508L171.023 4.9375H172.992L179.52 22H177.211L175.582 17.5469ZM169.113 15.6953H174.914L172.008 7.71484L169.113 15.6953ZM192.082 6.78906H186.598V22H184.359V6.78906H178.887V4.9375H192.082V6.78906ZM200.449 19.0117L205.324 4.9375H207.785L201.457 22H199.465L193.148 4.9375H195.598L200.449 19.0117Z" transform="translate(134 210)" fill="#0A4DA2"/>
<path d="M13.4452 80C11.8942 80 10.3726 79.5748 9.04411 78.7702C7.71558 77.9656 6.63041 76.8121 5.90535 75.4337C2.13559 68.2679 0 60.0993 0 51.4286C0 23.0254 22.9034 0 51.1562 0C79.409 0 102.312 23.0254 102.312 51.4286C102.312 60.0993 100.177 68.2679 96.4071 75.4337C95.6821 76.8121 94.5969 77.9657 93.2683 78.7702C91.9398 79.5748 90.4182 80 88.8672 80H13.4452ZM90.9444 45.7143C87.8052 45.7143 85.2604 48.2727 85.2604 51.4286C85.2604 54.5845 87.8052 57.1429 90.9444 57.1429C94.0836 57.1429 96.6284 54.5845 96.6284 51.4286C96.6284 48.2727 94.0836 45.7143 90.9444 45.7143ZM51.1562 17.1429C54.2954 17.1429 56.8402 14.5845 56.8402 11.4286C56.8402 8.27268 54.2954 5.71429 51.1562 5.71429C48.017 5.71429 45.4722 8.27268 45.4722 11.4286C45.4722 14.5845 48.017 17.1429 51.1562 17.1429ZM11.368 45.7143C8.22887 45.7143 5.68402 48.2727 5.68402 51.4286C5.68402 54.5845 8.22887 57.1429 11.368 57.1429C14.5072 57.1429 17.0521 54.5845 17.0521 51.4286C17.0521 48.2727 14.5072 45.7143 11.368 45.7143ZM23.0217 17.43C19.8825 17.43 17.3377 19.9884 17.3377 23.1443C17.3377 26.3002 19.8825 28.8586 23.0217 28.8586C26.1609 28.8586 28.7057 26.3002 28.7057 23.1443C28.7057 19.9884 26.1609 17.43 23.0217 17.43ZM79.2907 17.43C76.1515 17.43 73.6067 19.9884 73.6067 23.1443C73.6067 26.3002 76.1515 28.8586 79.2907 28.8586C82.4299 28.8586 84.9747 26.3002 84.9747 23.1443C84.9747 19.9884 82.4299 17.43 79.2907 17.43ZM63.8234 23.0611C61.5805 22.3396 59.1815 23.5825 58.4639 25.8368L50.3068 51.4637C44.4256 51.9009 39.7882 56.8329 39.7882 62.8571C39.7882 69.1689 44.8779 74.2857 51.1562 74.2857C57.4346 74.2857 62.5243 69.1689 62.5243 62.8571C62.5243 59.3263 60.9308 56.1702 58.428 54.0737L66.5844 28.4491C67.3019 26.1946 66.0658 23.7825 63.8234 23.0611V23.0611Z" transform="translate(339 102)" fill="#0A4DA2"/>
<path d="M103.613 21.6667H92.2538L90.6262 17.3033C88.7214 12.1965 85.3574 7.85521 80.8985 4.74854C76.4395 1.64187 71.2148 0 65.7897 0H40.312C34.8868 0 29.6623 1.64208 25.2033 4.74854C20.7441 7.85521 17.3804 12.1965 15.4755 17.3033L13.8479 21.6667H2.48862C0.791203 21.6667 -0.407209 23.3383 0.129517 24.9573L1.78736 29.9573C1.95241 30.4551 2.26907 30.888 2.69247 31.1948C3.11587 31.5016 3.62455 31.6667 4.14646 31.6667H10.1178L10.107 31.6958C6.05567 33.9777 3.31568 38.3327 3.31568 43.3333V53.3333C3.31568 56.7135 4.56921 59.7977 6.63136 62.1477V75C6.63136 77.7615 8.85805 80 11.6049 80H21.5519C24.2988 80 26.5254 77.7615 26.5254 75V66.6667H79.5763V75C79.5763 77.7615 81.803 80 84.5499 80H94.4969C97.2437 80 99.4704 77.7615 99.4704 75V62.1477C101.533 59.7975 102.786 56.7133 102.786 53.3333V43.3333C102.786 38.3327 100.046 33.9777 95.9948 31.6958L95.984 31.6667H101.955C102.477 31.6667 102.986 31.5016 103.409 31.1948C103.833 30.888 104.149 30.4551 104.314 29.9573L105.972 24.9573C106.509 23.3383 105.311 21.6667 103.613 21.6667ZM27.8938 21.985C29.8241 16.8102 34.8146 13.3333 40.312 13.3333H65.7897C71.2871 13.3333 76.2776 16.8102 78.208 21.985L81.1977 30H24.9041L27.8938 21.985ZM18.2362 55C14.5739 55 11.6049 52.0152 11.6049 48.3333C11.6049 44.6515 14.5739 41.6667 18.2362 41.6667C21.8986 41.6667 28.1833 47.9848 28.1833 51.6667C28.1833 55.3485 21.8986 55 18.2362 55ZM87.8655 55C84.2032 55 77.9185 55.3485 77.9185 51.6667C77.9185 47.9848 84.2032 41.6667 87.8655 41.6667C91.5279 41.6667 94.4969 44.6515 94.4969 48.3333C94.4969 52.0152 91.5279 55 87.8655 55Z" transform="translate(19 102)" fill="#0A4DA2"/>
<path d="M106.864 26.6673C103.768 26.6448 100.793 27.151 98.0239 28.0994L91.1643 16.6667H108.333C111.095 16.6667 113.333 14.4281 113.333 11.6667V5C113.333 2.23854 111.095 2.31474e-10 108.333 2.31474e-10H98.8934C98.1926 5.77412e-06 97.4995 0.147365 96.8592 0.432517C96.219 0.717668 95.6458 1.13424 95.177 1.65521L87.3653 10.335L82.6207 2.4275C82.1765 1.68712 81.5481 1.07439 80.7968 0.648982C80.0454 0.223576 79.1967 -8.30685e-06 78.3332 2.31474e-10H61.6666C59.8256 2.31474e-10 58.3333 1.49229 58.3333 3.33333V6.66667C58.3333 8.50771 59.8256 10 61.6666 10H75.5022L79.5022 16.6667H47.4799C43.7868 11.8598 38.1208 8.33333 26.6666 8.33333H15.1125C12.3093 8.33333 9.94767 10.6273 10.0008 13.43C10.0525 16.1469 12.2708 18.3333 15 18.3333H26.6666C31.7716 18.3333 34.7262 20.6081 36.6222 23.4935L34.2699 27.7704C31.5604 26.9652 28.6718 26.5754 25.676 26.685C11.6368 27.1977 0.326014 38.6677 0.00705543 52.7127C-0.333986 67.7242 11.7327 80 26.6666 80C39.092 80 49.5299 71.5012 52.4901 60H70.0393C72.8878 60 75.162 57.6206 75.0343 54.7756C74.593 44.959 78.6847 35.2621 86.7395 28.7285L89.3405 33.0635C83.5809 37.9915 79.9453 45.3302 80.0007 53.5175C80.0987 68.0083 91.918 79.8617 106.409 79.9987C121.331 80.14 133.458 68.0223 133.332 53.1031C133.21 38.605 121.363 26.7727 106.864 26.6673V26.6673ZM26.6666 70C17.4766 70 9.99996 62.5233 9.99996 53.3333C9.99996 44.1433 17.4766 36.6667 26.6666 36.6667C27.5504 36.6667 28.4177 36.7377 29.2643 36.8712L20.6187 52.5904C18.7889 55.9181 21.2004 60 25 60H41.9368C39.3597 65.8802 33.4868 70 26.6666 70ZM107.573 69.9758C97.9732 70.4869 89.9999 62.8237 89.9999 53.3333C89.9999 48.8827 91.757 44.8373 94.6093 41.845L104.903 59.0017C105.851 60.5802 107.898 61.0921 109.477 60.145L112.335 58.43C113.914 57.4829 114.426 55.4352 113.478 53.8567L103.363 36.9969C104.45 36.7771 105.557 36.6665 106.667 36.6667C116.157 36.6667 123.82 44.6402 123.309 54.24C122.859 62.6896 116.023 69.5258 107.573 69.9758V69.9758Z" transform="translate(168 102)" fill="#0A4DA2"/>
</svg>
