<svg width="470" height="330" viewBox="0 0 470 330" fill="none" xmlns="http://www.w3.org/2000/svg">
<rect width="470" height="330" fill="white"/>
<path d="M15.0938 22H12.832V14.1133H4.23047V22H1.98047V4.9375H4.23047V12.2734H12.832V4.9375H15.0938V22ZM32.2148 14.0195C32.2148 15.6914 31.9336 17.1523 31.3711 18.4023C30.8086 19.6445 30.0117 20.5938 28.9805 21.25C27.9492 21.9062 26.7461 22.2344 25.3711 22.2344C24.0273 22.2344 22.8359 21.9062 21.7969 21.25C20.7578 20.5859 19.9492 19.6445 19.3711 18.4258C18.8008 17.1992 18.5078 15.7812 18.4922 14.1719V12.9414C18.4922 11.3008 18.7773 9.85156 19.3477 8.59375C19.918 7.33594 20.7227 6.375 21.7617 5.71094C22.8086 5.03906 24.0039 4.70312 25.3477 4.70312C26.7148 4.70312 27.918 5.03516 28.957 5.69922C30.0039 6.35547 30.8086 7.3125 31.3711 8.57031C31.9336 9.82031 32.2148 11.2773 32.2148 12.9414V14.0195ZM29.9766 12.918C29.9766 10.8945 29.5703 9.34375 28.7578 8.26562C27.9453 7.17969 26.8086 6.63672 25.3477 6.63672C23.9258 6.63672 22.8047 7.17969 21.9844 8.26562C21.1719 9.34375 20.7539 10.8438 20.7305 12.7656V14.0195C20.7305 15.9805 21.1406 17.5234 21.9609 18.6484C22.7891 19.7656 23.9258 20.3242 25.3711 20.3242C26.8242 20.3242 27.9492 19.7969 28.7461 18.7422C29.543 17.6797 29.9531 16.1602 29.9766 14.1836V12.918ZM38.4961 4.9375L44.0742 18.8594L49.6523 4.9375H52.5703V22H50.3203V15.3555L50.5312 8.18359L44.9297 22H43.207L37.6172 8.21875L37.8398 15.3555V22H35.5898V4.9375H38.4961ZM66.1875 14.1133H58.793V20.1602H67.3828V22H56.543V4.9375H67.2656V6.78906H58.793V12.2734H66.1875V14.1133Z" transform="translate(31 210)" fill="#0A4DA2"/>
<path d="M13.9922 4.9375V16.5391C13.9844 18.1484 13.4766 19.4648 12.4688 20.4883C11.4688 21.5117 10.1094 22.0859 8.39062 22.2109L7.79297 22.2344C5.92578 22.2344 4.4375 21.7305 3.32812 20.7227C2.21875 19.7148 1.65625 18.3281 1.64062 16.5625V4.9375H3.86719V16.4922C3.86719 17.7266 4.20703 18.6875 4.88672 19.375C5.56641 20.0547 6.53516 20.3945 7.79297 20.3945C9.06641 20.3945 10.0391 20.0547 10.7109 19.375C11.3906 18.6953 11.7305 17.7383 11.7305 16.5039V4.9375H13.9922ZM20.4492 4.9375L26.0273 18.8594L31.6055 4.9375H34.5234V22H32.2734V15.3555L32.4844 8.18359L26.8828 22H25.1602L19.5703 8.21875L19.793 15.3555V22H17.543V4.9375H20.4492ZM38.4961 22V4.9375H44.0742C45.9258 4.9375 47.3164 5.32031 48.2461 6.08594C49.1836 6.85156 49.6523 7.98438 49.6523 9.48438C49.6523 10.2812 49.4258 10.9883 48.9727 11.6055C48.5195 12.2148 47.9023 12.6875 47.1211 13.0234C48.043 13.2812 48.7695 13.7734 49.3008 14.5C49.8398 15.2188 50.1094 16.0781 50.1094 17.0781C50.1094 18.6094 49.6133 19.8125 48.6211 20.6875C47.6289 21.5625 46.2266 22 44.4141 22H38.4961ZM40.7461 14.0195V20.1602H44.4609C45.5078 20.1602 46.332 19.8906 46.9336 19.3516C47.543 18.8047 47.8477 18.0547 47.8477 17.1016C47.8477 15.0469 46.7305 14.0195 44.4961 14.0195H40.7461ZM40.7461 12.2148H44.1445C45.1289 12.2148 45.9141 11.9688 46.5 11.4766C47.0938 10.9844 47.3906 10.3164 47.3906 9.47266C47.3906 8.53516 47.1172 7.85547 46.5703 7.43359C46.0234 7.00391 45.1914 6.78906 44.0742 6.78906H40.7461V12.2148ZM59.707 15.0977H55.6992V22H53.4375V4.9375H59.0859C61.0078 4.9375 62.4844 5.375 63.5156 6.25C64.5547 7.125 65.0742 8.39844 65.0742 10.0703C65.0742 11.1328 64.7852 12.0586 64.207 12.8477C63.6367 13.6367 62.8398 14.2266 61.8164 14.6172L65.8242 21.8594V22H63.4102L59.707 15.0977ZM55.6992 13.2578H59.1562C60.2734 13.2578 61.1602 12.9688 61.8164 12.3906C62.4805 11.8125 62.8125 11.0391 62.8125 10.0703C62.8125 9.01562 62.4961 8.20703 61.8633 7.64453C61.2383 7.08203 60.332 6.79688 59.1445 6.78906H55.6992V13.2578ZM77.8828 14.1133H70.4883V20.1602H79.0781V22H68.2383V4.9375H78.9609V6.78906H70.4883V12.2734H77.8828V14.1133ZM84.1406 20.1602H92.2266V22H81.8789V4.9375H84.1406V20.1602ZM97.0547 20.1602H105.141V22H94.793V4.9375H97.0547V20.1602ZM117.363 17.5469H110.215L108.609 22H106.289L112.805 4.9375H114.773L121.301 22H118.992L117.363 17.5469ZM110.895 15.6953H116.695L113.789 7.71484L110.895 15.6953Z" transform="translate(325 210)" fill="#0A4DA2"/>
<path d="M14.5312 16.5859C14.3203 18.3906 13.6523 19.7852 12.5273 20.7695C11.4102 21.7461 9.92188 22.2344 8.0625 22.2344C6.04688 22.2344 4.42969 21.5117 3.21094 20.0664C2 18.6211 1.39453 16.6875 1.39453 14.2656V12.625C1.39453 11.0391 1.67578 9.64453 2.23828 8.44141C2.80859 7.23828 3.61328 6.31641 4.65234 5.67578C5.69141 5.02734 6.89453 4.70312 8.26172 4.70312C10.0742 4.70312 11.5273 5.21094 12.6211 6.22656C13.7148 7.23438 14.3516 8.63281 14.5312 10.4219H12.2695C12.0742 9.0625 11.6484 8.07812 10.9922 7.46875C10.3438 6.85938 9.43359 6.55469 8.26172 6.55469C6.82422 6.55469 5.69531 7.08594 4.875 8.14844C4.0625 9.21094 3.65625 10.7227 3.65625 12.6836V14.3359C3.65625 16.1875 4.04297 17.6602 4.81641 18.7539C5.58984 19.8477 6.67188 20.3945 8.0625 20.3945C9.3125 20.3945 10.2695 20.1133 10.9336 19.5508C11.6055 18.9805 12.0508 17.9922 12.2695 16.5859H14.5312ZM27.0352 17.5469H19.8867L18.2812 22H15.9609L22.4766 4.9375H24.4453L30.9727 22H28.6641L27.0352 17.5469ZM20.5664 15.6953H26.3672L23.4609 7.71484L20.5664 15.6953ZM33.2695 22V4.9375H38.8477C40.6992 4.9375 42.0898 5.32031 43.0195 6.08594C43.957 6.85156 44.4258 7.98438 44.4258 9.48438C44.4258 10.2812 44.1992 10.9883 43.7461 11.6055C43.293 12.2148 42.6758 12.6875 41.8945 13.0234C42.8164 13.2812 43.543 13.7734 44.0742 14.5C44.6133 15.2188 44.8828 16.0781 44.8828 17.0781C44.8828 18.6094 44.3867 19.8125 43.3945 20.6875C42.4023 21.5625 41 22 39.1875 22H33.2695ZM35.5195 14.0195V20.1602H39.2344C40.2812 20.1602 41.1055 19.8906 41.707 19.3516C42.3164 18.8047 42.6211 18.0547 42.6211 17.1016C42.6211 15.0469 41.5039 14.0195 39.2695 14.0195H35.5195ZM35.5195 12.2148H38.918C39.9023 12.2148 40.6875 11.9688 41.2734 11.4766C41.8672 10.9844 42.1641 10.3164 42.1641 9.47266C42.1641 8.53516 41.8906 7.85547 41.3438 7.43359C40.7969 7.00391 39.9648 6.78906 38.8477 6.78906H35.5195V12.2148ZM50.6367 22H48.3867V4.9375H50.6367V22ZM67.875 22H65.6133L57.0234 8.85156V22H54.7617V4.9375H57.0234L65.6367 18.1445V4.9375H67.875V22Z" transform="translate(195 211)" fill="#0A4DA2"/>
<path d="M86.7386 50.1016V75.7109C86.7386 78.0878 84.8365 80 82.4722 80H61.8515C60.6783 80 59.7184 79.035 59.7184 77.8555V57.8398C59.7184 56.6603 58.7584 55.6953 57.5852 55.6953H44.7861C43.6129 55.6953 42.653 56.6603 42.653 57.8398V77.8555C42.653 79.035 41.693 80 40.5198 80H19.8991C17.5348 80 15.6327 78.0878 15.6327 75.7109V50.1016C15.6327 49.4583 15.9172 48.8507 16.4149 48.4396L49.8347 20.7752C50.6168 20.1318 51.7545 20.1318 52.5545 20.7752L85.9742 48.4396C86.4542 48.8507 86.7386 49.4583 86.7386 50.1016ZM101.6 39.2181L86.7386 26.9049V2.15347C86.7386 0.973976 85.7787 0.00893601 84.6054 0.00893601H74.6506C73.4774 0.00893601 72.5174 0.973976 72.5174 2.15347V15.1279L56.6075 1.95689C53.4611 -0.652295 48.9103 -0.652295 45.7639 1.95689L0.771625 39.2181C-0.134975 39.9687 -0.25941 41.3269 0.487201 42.2384L5.0202 47.7784C5.76681 48.6898 7.11782 48.8149 8.02442 48.0643L49.8347 13.448C50.6168 12.8046 51.7545 12.8046 52.5545 13.448L94.3647 48.0643C95.2713 48.8149 96.6223 48.6898 97.3689 47.7784L101.902 42.2384C102.649 41.3091 102.506 39.9687 101.6 39.2181V39.2181Z" transform="translate(17 94)" fill="#0A4DA2"/>
<path d="M86.5721 41.8173C78.5784 34.7522 69.853 34.9895 61.9272 46.6191C61.1038 47.8473 59.6105 47.7386 58.8598 46.6191C58.4739 46.0528 53.8524 37.1178 44.7617 37.1178C37.6487 37.1178 33.7979 42.0206 30.6635 46.6191C29.913 47.7386 28.4198 47.8473 27.5964 46.6191C19.6848 35.012 11.0263 34.6806 2.9515 41.8173C1.36464 43.1086 -0.298693 41.6441 0.0457235 40.3359C4.99624 21.027 24.637 10.0956 44.7619 10.0956C64.7792 10.0956 84.6349 21.027 89.4779 40.3359C89.8207 41.6362 88.1683 43.1161 86.5721 41.8173ZM39.7882 40.7814V65C39.7882 67.757 37.5571 70 34.8147 70C32.0722 70 29.8412 67.757 29.8412 65C29.8412 62.2386 27.6144 60 24.8676 60C22.1209 60 19.8941 62.2386 19.8941 65C19.8941 73.2711 26.5874 80 34.8147 80C43.042 80 49.7352 73.2711 49.7352 65V40.8262C46.3414 39.1378 42.6752 39.3048 39.7882 40.7814V40.7814ZM49.7352 7.81156V5C49.7352 2.23859 47.5085 0 44.7617 0C42.0149 0 39.7882 2.23859 39.7882 5V7.81047C43.0978 7.52364 46.4257 7.52401 49.7352 7.81156V7.81156Z" transform="translate(345 102)" fill="#0A4DA2"/>
<path d="M46.3883 53.3393H27.6466V80H0V0H19.6196V18.6607L74.2857 33.9464V80H46.3883V53.3393Z" transform="translate(195 102)" fill="#0A4DA2"/>
</svg>
