<svg width="470" height="330" viewBox="0 0 470 330" fill="none" xmlns="http://www.w3.org/2000/svg">
<rect width="470" height="330" fill="white"/>
<path d="M7.00781 14.3945C5.07812 13.8398 3.67188 13.1602 2.78906 12.3555C1.91406 11.543 1.47656 10.543 1.47656 9.35547C1.47656 8.01172 2.01172 6.90234 3.08203 6.02734C4.16016 5.14453 5.55859 4.70312 7.27734 4.70312C8.44922 4.70312 9.49219 4.92969 10.4062 5.38281C11.3281 5.83594 12.0391 6.46094 12.5391 7.25781C13.0469 8.05469 13.3008 8.92578 13.3008 9.87109H11.0391C11.0391 8.83984 10.7109 8.03125 10.0547 7.44531C9.39844 6.85156 8.47266 6.55469 7.27734 6.55469C6.16797 6.55469 5.30078 6.80078 4.67578 7.29297C4.05859 7.77734 3.75 8.45312 3.75 9.32031C3.75 10.0156 4.04297 10.6055 4.62891 11.0898C5.22266 11.5664 6.22656 12.0039 7.64062 12.4023C9.0625 12.8008 10.1719 13.2422 10.9688 13.7266C11.7734 14.2031 12.3672 14.7617 12.75 15.4023C13.1406 16.043 13.3359 16.7969 13.3359 17.6641C13.3359 19.0469 12.7969 20.1562 11.7188 20.9922C10.6406 21.8203 9.19922 22.2344 7.39453 22.2344C6.22266 22.2344 5.12891 22.0117 4.11328 21.5664C3.09766 21.1133 2.3125 20.4961 1.75781 19.7148C1.21094 18.9336 0.9375 18.0469 0.9375 17.0547H3.19922C3.19922 18.0859 3.57812 18.9023 4.33594 19.5039C5.10156 20.0977 6.12109 20.3945 7.39453 20.3945C8.58203 20.3945 9.49219 20.1523 10.125 19.668C10.7578 19.1836 11.0742 18.5234 11.0742 17.6875C11.0742 16.8516 10.7812 16.207 10.1953 15.7539C9.60938 15.293 8.54688 14.8398 7.00781 14.3945ZM29.3438 22H27.082L18.4922 8.85156V22H16.2305V4.9375H18.4922L27.1055 18.1445V4.9375H29.3438V22ZM46.4648 14.0195C46.4648 15.6914 46.1836 17.1523 45.6211 18.4023C45.0586 19.6445 44.2617 20.5938 43.2305 21.25C42.1992 21.9062 40.9961 22.2344 39.6211 22.2344C38.2773 22.2344 37.0859 21.9062 36.0469 21.25C35.0078 20.5859 34.1992 19.6445 33.6211 18.4258C33.0508 17.1992 32.7578 15.7812 32.7422 14.1719V12.9414C32.7422 11.3008 33.0273 9.85156 33.5977 8.59375C34.168 7.33594 34.9727 6.375 36.0117 5.71094C37.0586 5.03906 38.2539 4.70312 39.5977 4.70312C40.9648 4.70312 42.168 5.03516 43.207 5.69922C44.2539 6.35547 45.0586 7.3125 45.6211 8.57031C46.1836 9.82031 46.4648 11.2773 46.4648 12.9414V14.0195ZM44.2266 12.918C44.2266 10.8945 43.8203 9.34375 43.0078 8.26562C42.1953 7.17969 41.0586 6.63672 39.5977 6.63672C38.1758 6.63672 37.0547 7.17969 36.2344 8.26562C35.4219 9.34375 35.0039 10.8438 34.9805 12.7656V14.0195C34.9805 15.9805 35.3906 17.5234 36.2109 18.6484C37.0391 19.7656 38.1758 20.3242 39.6211 20.3242C41.0742 20.3242 42.1992 19.7969 42.9961 18.7422C43.793 17.6797 44.2031 16.1602 44.2266 14.1836V12.918ZM53.5195 16.6211L53.8477 18.8711L54.3281 16.8438L57.7031 4.9375H59.6016L62.8945 16.8438L63.3633 18.9062L63.7266 16.6094L66.375 4.9375H68.6367L64.5 22H62.4492L58.9336 9.56641L58.6641 8.26562L58.3945 9.56641L54.75 22H52.6992L48.5742 4.9375H50.8242L53.5195 16.6211ZM74.0508 4.9375L79.6289 18.8594L85.207 4.9375H88.125V22H85.875V15.3555L86.0859 8.18359L80.4844 22H78.7617L73.1719 8.21875L73.3945 15.3555V22H71.1445V4.9375H74.0508ZM105.223 14.0195C105.223 15.6914 104.941 17.1523 104.379 18.4023C103.816 19.6445 103.02 20.5938 101.988 21.25C100.957 21.9062 99.7539 22.2344 98.3789 22.2344C97.0352 22.2344 95.8438 21.9062 94.8047 21.25C93.7656 20.5859 92.957 19.6445 92.3789 18.4258C91.8086 17.1992 91.5156 15.7812 91.5 14.1719V12.9414C91.5 11.3008 91.7852 9.85156 92.3555 8.59375C92.9258 7.33594 93.7305 6.375 94.7695 5.71094C95.8164 5.03906 97.0117 4.70312 98.3555 4.70312C99.7227 4.70312 100.926 5.03516 101.965 5.69922C103.012 6.35547 103.816 7.3125 104.379 8.57031C104.941 9.82031 105.223 11.2773 105.223 12.9414V14.0195ZM102.984 12.918C102.984 10.8945 102.578 9.34375 101.766 8.26562C100.953 7.17969 99.8164 6.63672 98.3555 6.63672C96.9336 6.63672 95.8125 7.17969 94.9922 8.26562C94.1797 9.34375 93.7617 10.8438 93.7383 12.7656V14.0195C93.7383 15.9805 94.1484 17.5234 94.9688 18.6484C95.7969 19.7656 96.9336 20.3242 98.3789 20.3242C99.832 20.3242 100.957 19.7969 101.754 18.7422C102.551 17.6797 102.961 16.1602 102.984 14.1836V12.918ZM108.598 22V4.9375H114.176C116.027 4.9375 117.418 5.32031 118.348 6.08594C119.285 6.85156 119.754 7.98438 119.754 9.48438C119.754 10.2812 119.527 10.9883 119.074 11.6055C118.621 12.2148 118.004 12.6875 117.223 13.0234C118.145 13.2812 118.871 13.7734 119.402 14.5C119.941 15.2188 120.211 16.0781 120.211 17.0781C120.211 18.6094 119.715 19.8125 118.723 20.6875C117.73 21.5625 116.328 22 114.516 22H108.598ZM110.848 14.0195V20.1602H114.562C115.609 20.1602 116.434 19.8906 117.035 19.3516C117.645 18.8047 117.949 18.0547 117.949 17.1016C117.949 15.0469 116.832 14.0195 114.598 14.0195H110.848ZM110.848 12.2148H114.246C115.23 12.2148 116.016 11.9688 116.602 11.4766C117.195 10.9844 117.492 10.3164 117.492 9.47266C117.492 8.53516 117.219 7.85547 116.672 7.43359C116.125 7.00391 115.293 6.78906 114.176 6.78906H110.848V12.2148ZM125.965 22H123.715V4.9375H125.965V22ZM132.352 20.1602H140.438V22H130.09V4.9375H132.352V20.1602ZM152.648 14.1133H145.254V20.1602H153.844V22H143.004V4.9375H153.727V6.78906H145.254V12.2734H152.648V14.1133Z" transform="translate(7 209)" fill="#0A4DA2"/>
<path d="M14.5781 19.7617C14 20.5898 13.1914 21.2109 12.1523 21.625C11.1211 22.0312 9.91797 22.2344 8.54297 22.2344C7.15234 22.2344 5.91797 21.9102 4.83984 21.2617C3.76172 20.6055 2.92578 19.6758 2.33203 18.4727C1.74609 17.2695 1.44531 15.875 1.42969 14.2891V12.8008C1.42969 10.2305 2.02734 8.23828 3.22266 6.82422C4.42578 5.41016 6.11328 4.70312 8.28516 4.70312C10.0664 4.70312 11.5 5.16016 12.5859 6.07422C13.6719 6.98047 14.3359 8.26953 14.5781 9.94141H12.3281C11.9062 7.68359 10.5625 6.55469 8.29688 6.55469C6.78906 6.55469 5.64453 7.08594 4.86328 8.14844C4.08984 9.20312 3.69922 10.7344 3.69141 12.7422V14.1367C3.69141 16.0508 4.12891 17.5742 5.00391 18.707C5.87891 19.832 7.0625 20.3945 8.55469 20.3945C9.39844 20.3945 10.1367 20.3008 10.7695 20.1133C11.4023 19.9258 11.9258 19.6094 12.3398 19.1641V15.332H8.39062V13.5039H14.5781V19.7617ZM31.4648 14.0195C31.4648 15.6914 31.1836 17.1523 30.6211 18.4023C30.0586 19.6445 29.2617 20.5938 28.2305 21.25C27.1992 21.9062 25.9961 22.2344 24.6211 22.2344C23.2773 22.2344 22.0859 21.9062 21.0469 21.25C20.0078 20.5859 19.1992 19.6445 18.6211 18.4258C18.0508 17.1992 17.7578 15.7812 17.7422 14.1719V12.9414C17.7422 11.3008 18.0273 9.85156 18.5977 8.59375C19.168 7.33594 19.9727 6.375 21.0117 5.71094C22.0586 5.03906 23.2539 4.70312 24.5977 4.70312C25.9648 4.70312 27.168 5.03516 28.207 5.69922C29.2539 6.35547 30.0586 7.3125 30.6211 8.57031C31.1836 9.82031 31.4648 11.2773 31.4648 12.9414V14.0195ZM29.2266 12.918C29.2266 10.8945 28.8203 9.34375 28.0078 8.26562C27.1953 7.17969 26.0586 6.63672 24.5977 6.63672C23.1758 6.63672 22.0547 7.17969 21.2344 8.26562C20.4219 9.34375 20.0039 10.8438 19.9805 12.7656V14.0195C19.9805 15.9805 20.3906 17.5234 21.2109 18.6484C22.0391 19.7656 23.1758 20.3242 24.6211 20.3242C26.0742 20.3242 27.1992 19.7969 27.9961 18.7422C28.793 17.6797 29.2031 16.1602 29.2266 14.1836V12.918ZM37.1016 20.1602H45.1875V22H34.8398V4.9375H37.1016V20.1602ZM57.1641 14.4648H50.0039V22H47.7539V4.9375H58.3242V6.78906H50.0039V12.625H57.1641V14.4648ZM79.5234 16.5859C79.3125 18.3906 78.6445 19.7852 77.5195 20.7695C76.4023 21.7461 74.9141 22.2344 73.0547 22.2344C71.0391 22.2344 69.4219 21.5117 68.2031 20.0664C66.9922 18.6211 66.3867 16.6875 66.3867 14.2656V12.625C66.3867 11.0391 66.668 9.64453 67.2305 8.44141C67.8008 7.23828 68.6055 6.31641 69.6445 5.67578C70.6836 5.02734 71.8867 4.70312 73.2539 4.70312C75.0664 4.70312 76.5195 5.21094 77.6133 6.22656C78.707 7.23438 79.3438 8.63281 79.5234 10.4219H77.2617C77.0664 9.0625 76.6406 8.07812 75.9844 7.46875C75.3359 6.85938 74.4258 6.55469 73.2539 6.55469C71.8164 6.55469 70.6875 7.08594 69.8672 8.14844C69.0547 9.21094 68.6484 10.7227 68.6484 12.6836V14.3359C68.6484 16.1875 69.0352 17.6602 69.8086 18.7539C70.582 19.8477 71.6641 20.3945 73.0547 20.3945C74.3047 20.3945 75.2617 20.1133 75.9258 19.5508C76.5977 18.9805 77.043 17.9922 77.2617 16.5859H79.5234ZM92.0273 17.5469H84.8789L83.2734 22H80.9531L87.4688 4.9375H89.4375L95.9648 22H93.6562L92.0273 17.5469ZM85.5586 15.6953H91.3594L88.4531 7.71484L85.5586 15.6953ZM104.52 15.0977H100.512V22H98.25V4.9375H103.898C105.82 4.9375 107.297 5.375 108.328 6.25C109.367 7.125 109.887 8.39844 109.887 10.0703C109.887 11.1328 109.598 12.0586 109.02 12.8477C108.449 13.6367 107.652 14.2266 106.629 14.6172L110.637 21.8594V22H108.223L104.52 15.0977ZM100.512 13.2578H103.969C105.086 13.2578 105.973 12.9688 106.629 12.3906C107.293 11.8125 107.625 11.0391 107.625 10.0703C107.625 9.01562 107.309 8.20703 106.676 7.64453C106.051 7.08203 105.145 6.79688 103.957 6.78906H100.512V13.2578ZM123.902 6.78906H118.418V22H116.18V6.78906H110.707V4.9375H123.902V6.78906Z" transform="translate(173 209)" fill="#0A4DA2"/>
<path d="M5.66016 16.6211L5.98828 18.8711L6.46875 16.8438L9.84375 4.9375H11.7422L15.0352 16.8438L15.5039 18.9062L15.8672 16.6094L18.5156 4.9375H20.7773L16.6406 22H14.5898L11.0742 9.56641L10.8047 8.26562L10.5352 9.56641L6.89062 22H4.83984L0.714844 4.9375H2.96484L5.66016 16.6211ZM32.1914 17.5469H25.043L23.4375 22H21.1172L27.6328 4.9375H29.6016L36.1289 22H33.8203L32.1914 17.5469ZM25.7227 15.6953H31.5234L28.6172 7.71484L25.7227 15.6953ZM48.6914 6.78906H43.207V22H40.9688V6.78906H35.4961V4.9375H48.6914V6.78906ZM60.8672 14.1133H53.4727V20.1602H62.0625V22H51.2227V4.9375H61.9453V6.78906H53.4727V12.2734H60.8672V14.1133ZM71.1211 15.0977H67.1133V22H64.8516V4.9375H70.5C72.4219 4.9375 73.8984 5.375 74.9297 6.25C75.9688 7.125 76.4883 8.39844 76.4883 10.0703C76.4883 11.1328 76.1992 12.0586 75.6211 12.8477C75.0508 13.6367 74.2539 14.2266 73.2305 14.6172L77.2383 21.8594V22H74.8242L71.1211 15.0977ZM67.1133 13.2578H70.5703C71.6875 13.2578 72.5742 12.9688 73.2305 12.3906C73.8945 11.8125 74.2266 11.0391 74.2266 10.0703C74.2266 9.01562 73.9102 8.20703 73.2773 7.64453C72.6523 7.08203 71.7461 6.79688 70.5586 6.78906H67.1133V13.2578ZM92.2031 16.5859C91.9922 18.3906 91.3242 19.7852 90.1992 20.7695C89.082 21.7461 87.5938 22.2344 85.7344 22.2344C83.7188 22.2344 82.1016 21.5117 80.8828 20.0664C79.6719 18.6211 79.0664 16.6875 79.0664 14.2656V12.625C79.0664 11.0391 79.3477 9.64453 79.9102 8.44141C80.4805 7.23828 81.2852 6.31641 82.3242 5.67578C83.3633 5.02734 84.5664 4.70312 85.9336 4.70312C87.7461 4.70312 89.1992 5.21094 90.293 6.22656C91.3867 7.23438 92.0234 8.63281 92.2031 10.4219H89.9414C89.7461 9.0625 89.3203 8.07812 88.6641 7.46875C88.0156 6.85938 87.1055 6.55469 85.9336 6.55469C84.4961 6.55469 83.3672 7.08594 82.5469 8.14844C81.7344 9.21094 81.3281 10.7227 81.3281 12.6836V14.3359C81.3281 16.1875 81.7148 17.6602 82.4883 18.7539C83.2617 19.8477 84.3438 20.3945 85.7344 20.3945C86.9844 20.3945 87.9414 20.1133 88.6055 19.5508C89.2773 18.9805 89.7227 17.9922 89.9414 16.5859H92.2031ZM101.543 15.0977H97.5352V22H95.2734V4.9375H100.922C102.844 4.9375 104.32 5.375 105.352 6.25C106.391 7.125 106.91 8.39844 106.91 10.0703C106.91 11.1328 106.621 12.0586 106.043 12.8477C105.473 13.6367 104.676 14.2266 103.652 14.6172L107.66 21.8594V22H105.246L101.543 15.0977ZM97.5352 13.2578H100.992C102.109 13.2578 102.996 12.9688 103.652 12.3906C104.316 11.8125 104.648 11.0391 104.648 10.0703C104.648 9.01562 104.332 8.20703 103.699 7.64453C103.074 7.08203 102.168 6.79688 100.98 6.78906H97.5352V13.2578ZM119.496 17.5469H112.348L110.742 22H108.422L114.938 4.9375H116.906L123.434 22H121.125L119.496 17.5469ZM113.027 15.6953H118.828L115.922 7.71484L113.027 15.6953ZM135.141 14.4648H127.98V22H125.73V4.9375H136.301V6.78906H127.98V12.625H135.141V14.4648ZM151.02 6.78906H145.535V22H143.297V6.78906H137.824V4.9375H151.02V6.78906Z" transform="translate(310 209)" fill="#0A4DA2"/>
<path d="M69.5025 47.1311C69.9621 46.3279 70.1101 45.3836 69.9183 44.4783C69.4925 42.4523 67.5216 41.1588 65.5161 41.5889L51.8588 45.5023L41.25 40L51.8588 34.4977L65.5161 38.4111C67.5216 38.8412 69.4925 37.5477 69.9183 35.5217C70.3441 33.4958 69.0635 31.5048 67.0582 31.0747L59.6399 29.9595L67.9332 25.1227C69.7086 24.0872 70.3171 21.7936 69.2919 20C68.2668 18.2064 65.9964 17.5919 64.221 18.6273L55.9277 23.4642L58.681 16.4167C59.3149 14.447 58.2485 12.3314 56.2986 11.6909C54.3489 11.0505 52.2544 12.128 51.6205 14.0975L48.1468 28.0022L38.7124 33.5045V22.5L48.896 12.5086C50.2675 10.9692 50.1439 8.59812 48.62 7.21266C47.0961 5.82719 44.7489 5.95203 43.3775 7.49141L38.7124 13.4238V3.75C38.7124 1.67891 37.0503 0 35.0002 0C32.95 0 31.288 1.67891 31.288 3.75V13.4238L26.6228 7.49141C25.2511 5.95203 22.9042 5.82703 21.3803 7.21266C19.8564 8.59812 19.733 10.9692 21.1044 12.5086L31.2878 22.5V33.5048L21.8535 28.0025L18.3797 14.0978C17.7458 12.1283 15.6513 11.0508 13.7016 11.6912C11.7519 12.3317 10.6853 14.4475 11.3193 16.417L14.0724 23.4645L5.77909 18.6277C4.00363 17.5922 1.73331 18.2067 0.708157 20.0003C-0.317 21.7939 0.291438 24.0873 2.06691 25.123L10.3602 29.9598L2.94191 31.075C0.936438 31.5053 -0.344187 33.4961 0.0817504 35.522C0.507532 37.5478 2.47847 38.8416 4.48394 38.4114L18.1413 34.498L28.75 40L18.1413 45.5023L4.48409 41.5891C2.47863 41.1589 0.507688 42.4525 0.0819067 44.4784C-0.343875 46.5045 0.936594 48.4953 2.94206 48.9255L10.3603 50.0406L2.06706 54.8775C0.291594 55.913 -0.316687 58.2064 0.708313 60C1.73331 61.7936 4.00378 62.4081 5.77925 61.3727L14.0725 56.5358L11.3194 63.5833C11.1578 64.0834 11.1025 64.6117 11.1569 65.1344C11.2113 65.6572 11.3742 66.1628 11.6353 66.6189C12.0777 67.3928 12.7941 68.0109 13.7016 68.3089C15.6513 68.9494 17.7458 67.8719 18.3797 65.9023L21.8535 51.9977L31.2878 46.4953V57.5L21.1042 67.4914C19.7327 69.0308 19.8563 71.4019 21.3802 72.7873C22.9042 74.173 25.2511 74.048 26.6227 72.5086L31.2878 66.5763V76.25C31.2878 78.3211 32.9499 80 35 80C37.0502 80 38.7122 78.3211 38.7122 76.25V66.5763L43.3774 72.5086C43.7234 72.8991 44.1484 73.2117 44.6243 73.4257C45.1002 73.6397 45.6161 73.7503 46.1378 73.75C47.0564 73.7504 47.9418 73.407 48.6199 72.7873C50.1438 71.4019 50.2674 69.0308 48.8958 67.4914L38.7122 57.5V46.4952L48.1466 51.9975L51.6203 65.9022C52.2543 67.8717 54.3488 68.9492 56.2985 68.3087C58.2483 67.6683 59.3147 65.5525 58.6808 63.583L55.9275 56.5355L64.2208 61.3723C65.9963 62.4078 68.2666 61.7933 69.2918 59.9997C70.3169 58.2061 69.7085 55.9127 67.933 54.877L59.6397 50.0402L67.058 48.925C68.1299 48.6955 68.9946 48.0198 69.5025 47.1311V47.1311Z" transform="translate(52 102)" fill="#0A4DA2"/>
<path d="M15 65H50C50 67.7656 47.7656 70 45 70H42.5C39.7344 70 37.5 72.2344 37.5 75V78.125C37.5 79.1562 36.6562 80 35.625 80H29.375C28.3438 80 27.5 79.1562 27.5 78.125V75C27.5 72.2344 25.2656 70 22.5 70H20C17.2344 70 15 67.7656 15 65ZM65 32.5C65 44.0937 58.9062 54.25 49.7656 60H15.2344C6.09375 54.25 0 44.0937 0 32.5C0 14.5469 14.5469 0 32.5 0C50.4531 0 65 14.5469 65 32.5ZM36.8594 39.3594C39.7187 39.3594 42.0312 37.0469 42.0312 34.1875C42.0312 31.9375 40.5781 30.0781 38.5781 29.3594C40.0781 33.5469 36.1406 37.375 32.0312 35.9063C32.75 37.9063 34.6094 39.3594 36.8594 39.3594ZM44.5312 46.6875C44.5312 44.4375 43.0781 42.5781 41.0781 41.8594C42.5781 46.0469 38.6406 49.875 34.5312 48.4062C35.25 50.4062 37.1094 51.8594 39.3594 51.8594C42.2187 51.8594 44.5312 49.5312 44.5312 46.6875ZM54.5312 36.6875C54.5312 34.4375 53.0781 32.5781 51.0781 31.8594C52.5781 36.0469 48.6406 39.875 44.5312 38.4063C45.25 40.4063 47.1094 41.8594 49.3594 41.8594C52.2187 41.8594 54.5312 39.5313 54.5312 36.6875V36.6875Z" transform="translate(205 102)" fill="#0A4DA2"/>
<path d="M32.0656 3.45162C30.825 -1.04526 24.3406 -1.25463 22.9344 3.45162C15.6266 28.1016 0 34.8 0 52.1735C0 67.5547 12.3 80 27.5 80C42.7 80 55 67.5547 55 52.1735C55 34.7125 39.4078 28.2141 32.0656 3.45162V3.45162ZM27.5 70C17.8516 70 9.99999 62.1485 9.99999 52.5C9.99999 51.1188 11.1187 50 12.5 50C13.8812 50 15 51.1188 15 52.5C15 59.3922 20.6078 65 27.5 65C28.8812 65 30 66.1188 30 67.5C30 68.8813 28.8812 70 27.5 70Z" transform="translate(363 102)" fill="#0A4DA2"/>
</svg>
